<?xml version="1.0" encoding="UTF-8"?>
<!DOCTYPE svg PUBLIC "-//W3C//DTD SVG 1.1//EN" "http://www.w3.org/Graphics/SVG/1.1/DTD/svg11.dtd">
<svg xmlns="http://www.w3.org/2000/svg" version="1.1" width="1000px" height="1000x" style="shape-rendering:geometricPrecision; text-rendering:geometricPrecision; image-rendering:optimizeQuality; fill-rule:evenodd; clip-rule:evenodd" xmlns:xlink="http://www.w3.org/1999/xlink">
<g><path style="opacity:1" fill="#000000" d="M -0.5,-0.5 C 140.833,-0.5 282.167,-0.5 423.5,-0.5C 423.5,140.833 423.5,282.167 423.5,423.5C 282.167,423.5 140.833,423.5 -0.5,423.5C -0.5,282.167 -0.5,140.833 -0.5,-0.5 Z"/></g>
<g><path style="opacity:1" fill="#cacaca" d="M 87.5,128.5 C 88.4959,128.414 89.3292,128.748 90,129.5C 99.0396,146.413 108.206,163.247 117.5,180C 92.3237,185.437 68.657,194.437 46.5,207C 60.5748,181.016 74.2415,154.849 87.5,128.5 Z"/></g>
<g><path style="opacity:1" fill="#cccdcc" d="M 237.5,152.5 C 240.167,152.5 242.833,152.5 245.5,152.5C 245.5,172.167 245.5,191.833 245.5,211.5C 242.833,211.5 240.167,211.5 237.5,211.5C 237.5,191.833 237.5,172.167 237.5,152.5 Z"/></g>
<g><path style="opacity:1" fill="#c7c7c7" d="M 196.5,153.5 C 200.884,153.174 205.217,153.508 209.5,154.5C 217.101,173.305 224.101,192.305 230.5,211.5C 227.5,211.5 224.5,211.5 221.5,211.5C 220.539,206.744 218.873,202.244 216.5,198C 207.5,197.333 198.5,197.333 189.5,198C 187.336,202.326 185.669,206.826 184.5,211.5C 181.5,211.5 178.5,211.5 175.5,211.5C 182.496,192.178 189.496,172.845 196.5,153.5 Z"/></g>
<g><path style="opacity:1" fill="#c4c4c4" d="M 313.5,153.5 C 313.334,163.172 313.5,172.839 314,182.5C 314.41,181.099 314.91,179.766 315.5,178.5C 321.872,169.327 330.205,167.161 340.5,172C 344.381,174.928 346.881,178.761 348,183.5C 348.5,192.827 348.666,202.161 348.5,211.5C 345.833,211.5 343.167,211.5 340.5,211.5C 340.666,202.827 340.5,194.16 340,185.5C 336.411,176.413 330.244,174.246 321.5,179C 318.469,181.559 316.302,184.726 315,188.5C 314.5,196.159 314.334,203.826 314.5,211.5C 311.5,211.5 308.5,211.5 305.5,211.5C 305.5,192.167 305.5,172.833 305.5,153.5C 308.167,153.5 310.833,153.5 313.5,153.5 Z"/></g>
<g><path style="opacity:1" fill="#959595" d="M 313.5,153.5 C 314.167,161.833 314.833,170.167 315.5,178.5C 314.91,179.766 314.41,181.099 314,182.5C 313.5,172.839 313.334,163.172 313.5,153.5 Z"/></g>
<g><path style="opacity:1" fill="#070707" d="M 202.5,161.5 C 207.558,172.174 211.724,183.174 215,194.5C 213.681,192.513 211.848,191.346 209.5,191C 203.843,190.501 198.176,190.334 192.5,190.5C 195.83,180.845 199.163,171.178 202.5,161.5 Z"/></g>
<g><path style="opacity:1" fill="#c4c4c4" d="M 252.5,169.5 C 255.5,169.5 258.5,169.5 261.5,169.5C 260.189,177.799 261.856,178.966 266.5,173C 274.328,168.743 282.328,168.41 290.5,172C 296.847,176.532 299.514,182.699 298.5,190.5C 298.147,206.711 289.814,213.544 273.5,211C 269.131,209.733 265.297,207.567 262,204.5C 261.501,209.489 261.334,214.489 261.5,219.5C 258.5,219.5 255.5,219.5 252.5,219.5C 252.5,202.833 252.5,186.167 252.5,169.5 Z"/></g>
<g><path style="opacity:1" fill="#dc0602" d="M 369.5,169.5 C 378.952,167.738 387.119,170.071 394,176.5C 394.862,178.087 395.529,179.754 396,181.5C 396.333,188.5 396.667,195.5 397,202.5C 398.011,203.337 399.178,203.67 400.5,203.5C 400.5,206.167 400.5,208.833 400.5,211.5C 392.46,213.607 388.294,210.607 388,202.5C 382.47,210.236 374.97,213.07 365.5,211C 355.235,207.484 352.901,201.15 358.5,192C 360.717,190.725 363.051,189.725 365.5,189C 372.823,188.223 380.157,187.556 387.5,187C 388.856,183.347 387.856,180.347 384.5,178C 378.309,175.688 372.309,176.021 366.5,179C 365.139,180.584 364.472,182.418 364.5,184.5C 362.143,184.663 359.81,184.497 357.5,184C 356.894,179.528 358.561,175.862 362.5,173C 364.925,171.787 367.259,170.621 369.5,169.5 Z"/></g>
<g><path style="opacity:1" fill="#030303" d="M 272.5,176.5 C 287.355,175.192 293.188,181.858 290,196.5C 288.604,201.228 285.438,203.728 280.5,204C 267,205.167 260.833,199 262,185.5C 264.489,181.168 267.989,178.168 272.5,176.5 Z"/></g>
<g><path style="opacity:1" fill="#c8c8c8" d="M 113.5,190.5 C 116.777,190.216 119.943,190.549 123,191.5C 127.633,200.294 132.466,208.961 137.5,217.5C 136.5,217.833 135.5,218.167 134.5,218.5C 105.719,210.901 78.0521,213.734 51.5,227C 45.5634,230.217 40.0634,234.051 35,238.5C 35.0322,236.402 35.6989,234.402 37,232.5C 46.8097,219.002 59.643,209.502 75.5,204C 88.0217,198.773 100.688,194.273 113.5,190.5 Z"/></g>
<g><path style="opacity:1" fill="#080000" d="M 386.5,191.5 C 389.685,196.355 388.685,200.522 383.5,204C 377.122,207.31 370.955,207.143 365,203.5C 362.88,200.662 363.047,197.996 365.5,195.5C 372.586,194.124 379.586,192.79 386.5,191.5 Z"/></g>
<g><path style="opacity:1" fill="#c0c0c0" d="M 218.5,223.5 C 227.666,221.721 235.166,224.387 241,231.5C 242.128,233.345 242.628,235.345 242.5,237.5C 241.07,237.421 239.736,237.754 238.5,238.5C 233.782,229.318 226.782,226.818 217.5,231C 211.819,237.124 210.986,243.958 215,251.5C 223.679,258.098 229.846,256.264 233.5,246C 231.527,245.505 229.527,245.338 227.5,245.5C 227.5,244.167 227.5,242.833 227.5,241.5C 232.762,241.195 237.928,241.529 243,242.5C 243.499,248.491 243.666,254.491 243.5,260.5C 241.5,260.5 239.5,260.5 237.5,260.5C 237.666,256.486 237.499,252.486 237,248.5C 234.536,258.825 228.036,262.658 217.5,260C 212.243,257.744 208.743,253.91 207,248.5C 204.438,236.968 208.272,228.635 218.5,223.5 Z"/></g>
<g><path style="opacity:1" fill="#bebebe" d="M 331.5,223.5 C 333.5,223.5 335.5,223.5 337.5,223.5C 337.334,228.511 337.501,233.511 338,238.5C 344.081,232.362 350.414,232.029 357,237.5C 357.862,239.087 358.529,240.754 359,242.5C 359.499,248.491 359.666,254.491 359.5,260.5C 357.5,260.5 355.5,260.5 353.5,260.5C 353.666,254.491 353.499,248.491 353,242.5C 350.369,238.371 346.869,237.538 342.5,240C 340.641,241.558 339.141,243.391 338,245.5C 337.501,250.489 337.334,255.489 337.5,260.5C 335.5,260.5 333.5,260.5 331.5,260.5C 331.5,248.167 331.5,235.833 331.5,223.5 Z"/></g>
<g><path style="opacity:1" fill="#b8b8b8" d="M 362.5,223.5 C 364.5,223.5 366.5,223.5 368.5,223.5C 368.5,225.167 368.5,226.833 368.5,228.5C 366.5,228.5 364.5,228.5 362.5,228.5C 362.5,226.833 362.5,225.167 362.5,223.5 Z"/></g>
<g><path style="opacity:1" fill="#cacaca" d="M 83.5,228.5 C 132.53,224.839 162.863,246.839 174.5,294.5C 173.833,294.833 173.167,295.167 172.5,295.5C 169.065,294.616 165.732,293.449 162.5,292C 143.167,281.333 123.833,270.667 104.5,260C 94.5968,255.03 84.9301,255.364 75.5,261C 58.6592,274.757 39.9925,285.424 19.5,293C 15.553,294.154 11.553,294.987 7.5,295.5C 13.5863,277.499 23.5863,261.999 37.5,249C 51.5487,239.139 66.8821,232.306 83.5,228.5 Z"/></g>
<g><path style="opacity:1" fill="#bfbfbf" d="M 249.5,233.5 C 254.5,233.5 259.5,233.5 264.5,233.5C 264.5,235.167 264.5,236.833 264.5,238.5C 260.233,238.203 256.066,238.536 252,239.5C 251.5,246.492 251.334,253.492 251.5,260.5C 249.5,260.5 247.5,260.5 245.5,260.5C 245.334,253.159 245.5,245.826 246,238.5C 246.257,236.093 247.424,234.427 249.5,233.5 Z"/></g>
<g><path style="opacity:1" fill="#bfbfbf" d="M 273.5,233.5 C 280.251,232.295 286.085,233.962 291,238.5C 292.028,245.865 293.195,253.199 294.5,260.5C 290.51,261.384 287.677,260.051 286,256.5C 279.924,261.397 273.59,261.73 267,257.5C 264.636,253.526 265.136,250.026 268.5,247C 274.34,245.19 280.34,244.356 286.5,244.5C 286.417,239.434 283.751,237.101 278.5,237.5C 274.439,239.282 270.439,240.948 266.5,242.5C 266.986,238.019 269.319,235.019 273.5,233.5 Z"/></g>
<g><path style="opacity:1" fill="#bebebe" d="M 298.5,233.5 C 300.5,233.5 302.5,233.5 304.5,233.5C 304.34,235.199 304.506,236.866 305,238.5C 312.333,231.833 319.667,231.833 327,238.5C 329.256,244.675 328.923,250.675 326,256.5C 319.03,261.765 312.03,261.765 305,256.5C 304.501,261.489 304.334,266.489 304.5,271.5C 302.5,271.5 300.5,271.5 298.5,271.5C 298.5,258.833 298.5,246.167 298.5,233.5 Z"/></g>
<g><path style="opacity:1" fill="#d60602" d="M 381.5,233.5 C 388.251,232.295 394.085,233.962 399,238.5C 400.009,240.025 400.509,241.692 400.5,243.5C 398.801,243.66 397.134,243.494 395.5,243C 394.833,241 393.5,239.667 391.5,239C 381.333,237.167 377.167,241.333 379,251.5C 382.308,255.327 386.474,256.494 391.5,255C 393.5,254.333 394.833,253 395.5,251C 397.134,250.506 398.801,250.34 400.5,250.5C 399.868,255.305 397.201,258.472 392.5,260C 375.537,261.713 369.703,254.546 375,238.5C 376.965,236.45 379.132,234.783 381.5,233.5 Z"/></g>
<g><path style="opacity:1" fill="#bbbbbb" d="M 362.5,233.5 C 364.467,233.261 366.301,233.594 368,234.5C 368.5,243.16 368.666,251.827 368.5,260.5C 366.5,260.5 364.5,260.5 362.5,260.5C 362.5,251.5 362.5,242.5 362.5,233.5 Z"/></g>
<g><path style="opacity:1" fill="#040404" d="M 311.5,237.5 C 321.7,237.559 325.2,242.559 322,252.5C 315.083,258.45 309.416,257.45 305,249.5C 304.312,243.871 306.479,239.871 311.5,237.5 Z"/></g>
<g><path style="opacity:1" fill="#050505" d="M 274.5,248.5 C 278.5,248.5 282.5,248.5 286.5,248.5C 286.025,254.13 282.858,256.797 277,256.5C 270.855,255.238 270.022,252.572 274.5,248.5 Z"/></g>
</svg>
