<?xml version="1.0" standalone="no"?>
<!DOCTYPE svg PUBLIC "-//W3C//DTD SVG 20010904//EN"
 "http://www.w3.org/TR/2001/REC-SVG-20010904/DTD/svg10.dtd">
<svg version="1.0" xmlns="http://www.w3.org/2000/svg"
 width="424.000000pt" height="424.000000pt" viewBox="0 0 424.000000 424.000000"
 preserveAspectRatio="xMidYMid meet">

<g transform="translate(0.000000,424.000000) scale(0.100000,-0.100000)"
fill="#000000" stroke="none">
<path d="M3681 2528 c-72 -24 -134 -119 -87 -132 37 -10 46 -7 56 19 15 38 63
58 133 53 50 -4 64 -9 84 -32 24 -28 30 -60 14 -71 -6 -3 -61 -9 -124 -14
-124 -9 -166 -24 -185 -66 -29 -62 -6 -115 62 -146 79 -36 186 -15 234 46 l22
28 0 -27 c0 -39 33 -66 80 -66 l40 0 0 40 c0 33 -4 40 -19 40 -17 0 -19 10
-22 113 -5 130 -20 168 -82 200 -46 24 -156 31 -206 15z m209 -246 c0 -50 -21
-77 -75 -97 -85 -33 -175 -4 -175 56 0 38 33 59 95 60 27 0 70 4 95 8 25 5 48
9 53 10 4 0 7 -16 7 -37z"/>
<path d="M3801 1882 c-40 -21 -71 -73 -71 -117 0 -124 168 -182 255 -89 30 33
31 41 5 49 -15 5 -26 0 -40 -18 -51 -64 -170 -24 -170 58 0 82 118 123 169 59
33 -42 69 -29 46 16 -29 56 -128 77 -194 42z"/>
</g>
</svg>
